<svg width="57" height="101" viewBox="0 0 57 101" fill="none" xmlns="http://www.w3.org/2000/svg">
<path d="M0.66 96V93.76L6.74 86.76L7.38 87.98H0.8V85.16H10.46V87.38L4.36 94.4L3.72 93.16H10.66V96H0.66ZM10.7733 96V93.76L16.8533 86.76L17.4933 87.98H10.9133V85.16H20.5733V87.38L14.4733 94.4L13.8333 93.16H20.7733V96H10.7733ZM28.0666 96V93.98L27.8066 93.48V89.76C27.8066 89.16 27.6199 88.7 27.2466 88.38C26.8866 88.0467 26.3066 87.88 25.5066 87.88C24.9866 87.88 24.4599 87.9667 23.9266 88.14C23.3932 88.3 22.9399 88.5267 22.5666 88.82L21.2866 86.24C21.8999 85.84 22.6332 85.5333 23.4866 85.32C24.3532 85.0933 25.2132 84.98 26.0666 84.98C27.8266 84.98 29.1866 85.3867 30.1466 86.2C31.1199 87 31.6066 88.26 31.6066 89.98V96H28.0666ZM24.8666 96.18C23.9999 96.18 23.2666 96.0333 22.6666 95.74C22.0666 95.4467 21.6066 95.0467 21.2866 94.54C20.9799 94.0333 20.8266 93.4667 20.8266 92.84C20.8266 92.1733 20.9932 91.6 21.3266 91.12C21.6732 90.6267 22.1999 90.2533 22.9066 90C23.6132 89.7333 24.5266 89.6 25.6466 89.6H28.2066V91.58H26.1666C25.5532 91.58 25.1199 91.68 24.8666 91.88C24.6266 92.08 24.5066 92.3467 24.5066 92.68C24.5066 93.0133 24.6332 93.28 24.8866 93.48C25.1399 93.68 25.4866 93.78 25.9266 93.78C26.3399 93.78 26.7132 93.68 27.0466 93.48C27.3932 93.2667 27.6466 92.9467 27.8066 92.52L28.3266 93.92C28.1266 94.6667 27.7332 95.2333 27.1466 95.62C26.5732 95.9933 25.8132 96.18 24.8666 96.18ZM36.1652 94L36.2652 89.46L40.6852 85.16H45.1852L40.2852 90.22L38.3452 91.78L36.1652 94ZM33.0052 96V81.16H36.8052V96H33.0052ZM40.9652 96L37.6452 91.84L40.0052 88.92L45.5652 96H40.9652ZM46.912 100.06C46.3387 100.06 45.7587 99.9667 45.172 99.78C44.5987 99.6067 44.132 99.3733 43.772 99.08L45.092 96.42C45.3187 96.62 45.5787 96.7733 45.872 96.88C46.1787 97 46.4787 97.06 46.772 97.06C47.1854 97.06 47.512 96.9667 47.752 96.78C47.992 96.5933 48.1987 96.3 48.372 95.9L48.872 94.64L49.172 94.26L52.852 85.16H56.472L51.792 96.44C51.4187 97.3733 50.9854 98.1 50.492 98.62C50.012 99.1533 49.472 99.5267 48.872 99.74C48.2854 99.9533 47.632 100.06 46.912 100.06ZM48.392 96.46L43.612 85.16H47.512L51.032 93.92L48.392 96.46Z" fill="white"/>
<path d="M7.998 65.972L29.902 35.336L33.75 32.228H7.998V23.2H43.888V32.228L21.836 63.16L18.062 65.972H43.888V75H7.998V65.972Z" fill="#38C952"/>
<path d="M12.998 65.972L34.902 35.336L38.75 32.228H12.998V23.2H48.888V32.228L26.836 63.16L23.062 65.972H48.888V75H12.998V65.972Z" fill="#E53A30"/>
</svg>
